<?xml version="1.0" encoding="UTF-8"?>
<svg id="Ebene_1" data-name="Ebene 1" xmlns="http://www.w3.org/2000/svg" viewBox="0 0 37.6236 31.08">
  <defs>
    <style>
      .cls-1 {
        stroke-linecap: round;
      }

      .cls-1, .cls-2 {
        fill: none;
        stroke: #1f3d8a;
        stroke-miterlimit: 10;
        stroke-width: 2.1px;
      }

      .cls-3 {
        fill: #1f3d8a;
      }
    </style>
  </defs>
  <polyline class="cls-1" points="13.1927 30.03 21.9782 18.5291 26.0953 22.738 34.8111 11.2929"/>
  <polyline class="cls-1" points="29.6652 11.9395 34.9961 10.2208 36.5736 15.1137"/>
  <circle class="cls-2" cx="9.1866" cy="9.1866" r="8.1366"/>
  <path class="cls-3" d="M11.4436,12.4408c-.351.3726-.8313.6086-1.4396.7089-.0362.0144-.0537.0359-.0537.0646l.0106.6983c0,.0356-.0125.0659-.0375.0912-.025.025-.0556.0375-.0912.0375h-1.0743c-.0362,0-.0662-.0125-.0918-.0375-.025-.0253-.0375-.0556-.0375-.0912l.0106-.7092c0-.0287-.0175-.0503-.0537-.0643-.6083-.1218-1.0867-.3722-1.434-.752-.3473-.3794-.5209-.8557-.5209-1.4287v-.2364c0-.0356.0125-.0662.0375-.0912s.0556-.0378.0918-.0378h1.1598c.0356,0,.0662.0128.0912.0378s.0381.0556.0381.0912v.1611c0,.2864.1249.5281.3754.7251.2511.1971.5946.2954,1.0318.2954.3647,0,.6352-.0806.8107-.2417s.2636-.3598.2636-.5962c0-.1721-.0537-.317-.1611-.435-.1074-.1184-.2561-.222-.4459-.3117-.1899-.0893-.489-.213-.8969-.3707-.4659-.1646-.8563-.3329-1.1711-.5047-.3154-.1721-.5821-.4066-.8001-.7039-.2186-.297-.3279-.6639-.3279-1.1008,0-.5515.1668-1.0081.4997-1.3697s.782-.5962,1.3478-.7036c.0362-.0144.0537-.0359.0537-.0646l-.0212-.7841c0-.0356.0125-.0662.0375-.0912s.0556-.0378.0912-.0378h1.0743c.0356,0,.0662.0128.0912.0378s.0381.0556.0381.0912l-.0112.8057c0,.0287.0181.0503.0537.0643.5946.1221,1.0674.3813,1.4184.7788.3504.3975.5265.8828.5265,1.4556v.1611c0,.0359-.0131.0665-.0381.0915s-.0556.0375-.0912.0375h-1.1711c-.0356,0-.0662-.0125-.0912-.0375s-.0375-.0556-.0375-.0915v-.0859c0-.3007-.118-.5568-.3548-.7679-.2361-.2114-.5584-.317-.9668-.317-.3223,0-.5727.0715-.752.2149-.1786.1433-.2679.3401-.2679.5908,0,.1789.0518.3295.1555.4509.1037.1221.2592.233.4672.3332s.5296.2292.9668.3866c.4797.1793.8594.3404,1.1386.4834.2792.1433.5303.3582.752.6446.2217.2867.3329.6552.3329,1.1064,0,.573-.1755,1.0458-.5259,1.4181Z"/>
  <path class="cls-1" d="M10.2555,29.9864c-1.7796,0-3.2222-1.4426-3.2222-3.2222v-9.5"/>
  <path class="cls-1" d="M26.3666,26.7642c0,1.7796-1.4426,3.2222-3.2222,3.2222h-6.1667"/>
  <path class="cls-1" d="M16.0888,4.8753h7.0556c1.7796,0,3.2222,1.4426,3.2222,3.2222v9.0556"/>
</svg>