<?xml version="1.0" encoding="UTF-8"?>
<svg id="Ebene_1" data-name="Ebene 1" xmlns="http://www.w3.org/2000/svg" viewBox="0 0 27.5439 27.5444">
  <defs>
    <style>
      .cls-1 {
        fill: #c2a24d;
      }
    </style>
  </defs>
  <path class="cls-1" d="M13.7715,27.5444C6.1777,27.5444,0,21.3662,0,13.772S6.1777,0,13.7715,0s13.7725,6.1777,13.7725,13.772-6.1777,13.7725-13.7725,13.7725ZM13.7715,2.0996C7.3359,2.0996,2.0996,7.3359,2.0996,13.772s5.2363,11.6729,11.6719,11.6729,11.6729-5.2363,11.6729-11.6729S20.208,2.0996,13.7715,2.0996Z"/>
  <path class="cls-1" d="M17.3008,18.8604c-.5488.5825-1.2998.9517-2.251,1.1084-.0566.0225-.084.0562-.084.1011l.0166,1.0918c0,.0557-.0195.103-.0586.1426-.0391.0391-.0869.0586-.1426.0586h-1.6797c-.0566,0-.1035-.0195-.1436-.0586-.0391-.0396-.0586-.0869-.0586-.1426l.0166-1.1089c0-.0449-.0273-.0786-.084-.1006-.9512-.1904-1.6992-.582-2.2422-1.1758-.543-.5933-.8145-1.3379-.8145-2.2339v-.3696c0-.0557.0195-.1035.0586-.1426s.0869-.0591.1436-.0591h1.8135c.0557,0,.1035.02.1426.0591s.0596.0869.0596.1426v.252c0,.4478.1953.8257.5869,1.1338.3926.3081.9297.4619,1.6133.4619.5703,0,.9932-.126,1.2676-.3779s.4121-.5625.4121-.9321c0-.269-.084-.4956-.252-.6802-.168-.1851-.4004-.3472-.6973-.4873-.2969-.1396-.7646-.333-1.4023-.5796-.7285-.2573-1.3389-.5205-1.8311-.7891-.4932-.269-.9102-.6357-1.251-1.1006-.3418-.4644-.5127-1.0381-.5127-1.7212,0-.8623.2607-1.5762.7812-2.1416s1.2227-.9321,2.1074-1.1001c.0566-.0225.084-.0562.084-.1011l-.0332-1.2261c0-.0557.0195-.1035.0586-.1426s.0869-.0591.1426-.0591h1.6797c.0557,0,.1035.02.1426.0591s.0596.0869.0596.1426l-.0176,1.2598c0,.0449.0283.0786.084.1006.9297.1909,1.6689.5962,2.2178,1.2178.5478.6216.8232,1.3804.8232,2.2759v.252c0,.0562-.0205.104-.0596.1431s-.0869.0586-.1426.0586h-1.8311c-.0557,0-.1035-.0195-.1426-.0586s-.0586-.0869-.0586-.1431v-.1343c0-.4702-.1846-.8706-.5547-1.2007-.3691-.3306-.873-.4956-1.5117-.4956-.5039,0-.8955.1118-1.1758.3359-.2793.2241-.4189.5317-.4189.9238,0,.2798.0811.5151.2432.7051.1621.1909.4053.3643.7305.521s.8281.3584,1.5117.6045c.75.2803,1.3438.5322,1.7803.7559.4365.2241.8291.5601,1.1758,1.0078.3467.4482.5205,1.0244.5205,1.73,0,.896-.2744,1.6353-.8223,2.2173Z"/>
</svg>