<?xml version="1.0" encoding="UTF-8"?>
<svg id="Ebene_1" xmlns="http://www.w3.org/2000/svg" version="1.1" viewBox="0 0 2352.8 2990.6">
  <!-- Generator: Adobe Illustrator 30.1.0, SVG Export Plug-In . SVG Version: 2.1.1 Build 136)  -->
  <defs>
    <style>
      .st0 {
        fill: none;
        stroke: #35398e;
        stroke-miterlimit: 10;
        stroke-width: 1.2px;
      }
    </style>
  </defs>
  <path class="st0" d="M1172.2,1488h1.5s2.9-.8,2.9-.8h3.8s1.2,0,1.2,1.3"/>
  <path class="st0" d="M1178.3,1489.7h4.6s1,0,1,1.2"/>
  <path class="st0" d="M1179.5,1492.1h4.6s1,0,1,1.2"/>
  <path class="st0" d="M1179.5,1494.4h4.4s1.2,0,1.2,1.2-1.2,1.3-1.2,1.3h-7.2"/>
  <path class="st0" d="M1172.1,1496.7s1.7-.2,2.6,1.4,1.7,4.1,2.5,5.5,1.3.3,1.3.3c0,0,1.2-1,.7-2.3s-1.1-2.8-1.1-2.8v-.6"/>
  <path class="st0" d="M1166.8,1487.3h3.7c.2,0,.3.1.3.3v9.5c0,.2-.1.3-.3.3h-3.7"/>
</svg>