<?xml version="1.0" encoding="UTF-8"?>
<svg id="Ebene_1" data-name="Ebene 1" xmlns="http://www.w3.org/2000/svg" viewBox="0 0 27.1216 28.8656">
  <defs>
    <style>
      .cls-1 {
        fill: none;
        stroke: #3c3c3b;
        stroke-miterlimit: 10;
        stroke-width: 2.1px;
      }
    </style>
  </defs>
  <path class="cls-1" d="M1.7202,9.9861c-.1862,0-.3445-.0652-.4748-.1953-.1303-.1304-.1955-.2885-.1955-.4749v-2.0104c0-.745.2607-1.3777.7819-1.8991.5214-.5214,1.1542-.7819,1.8991-.7819h2.6808V1.7202c0-.1864.0652-.3445.1955-.4749.1303-.1301.2885-.1953.4748-.1953h2.234c.1862,0,.3445.0652.4748.1953.1303.1304.1955.2885.1955.4749v2.9043h7.149V1.7202c0-.1864.0652-.3445.1955-.4749.1303-.1301.2885-.1953.4748-.1953h2.2342c.1861,0,.3445.0652.4746.1953.1304.1304.1956.2885.1956.4749v2.9043h2.6807c.745,0,1.3777.2605,1.8991.7819s.7819,1.1541.7819,1.8991v2.0104c0,.1864-.0652.3445-.1953.4749-.1304.1301-.2885.1953-.4749.1953H1.7202ZM26.0716,12.2787v12.8559c0,.7447-.2605,1.3777-.7819,1.8991s-1.1541.7819-1.8991.7819H3.731c-.7448,0-1.3777-.2605-1.8991-.7819-.5212-.5214-.7819-1.1544-.7819-1.8991v-13.1269M17.8055,16.1259l-5.9204,5.9202-2.5692-2.625"/>
</svg>