<?xml version="1.0" encoding="UTF-8"?>
<svg id="Ebene_1" data-name="Ebene 1" xmlns="http://www.w3.org/2000/svg" viewBox="0 0 18.8636 18.1632">
  <defs>
    <style>
      .cls-1 {
        fill: none;
        stroke: #35398e;
        stroke-miterlimit: 10;
        stroke-width: 1.2px;
      }
    </style>
  </defs>
  <path class="cls-1" d="M5.4014,16.7274h1.4502s2.9496.8357,2.9496.8357h3.8099s1.1553.0246,1.1553-1.3273"/>
  <path class="cls-1" d="M11.4482,15.0805h4.5965s1.0078.0492,1.0078-1.1799"/>
  <path class="cls-1" d="M12.6593,12.6813h4.5965s1.0078.0492,1.0078-1.1799"/>
  <path class="cls-1" d="M12.6593,10.3365h4.3932s1.2111,0,1.2111-1.1799c0-1.1799-1.2111-1.2782-1.2111-1.2782h-7.2266"/>
  <path class="cls-1" d="M5.3031,8.026s1.7206.1966,2.6055-1.3519c.6075-1.0632,1.7065-4.0843,2.4737-5.5446.509-.9687,1.2807-.312,1.2807-.312,0,0,1.1872.9505.7202,2.2533s-1.0615,2.8413-1.0615,2.8413l.0432.6166"/>
  <path class="cls-1" d="M0,17.3911h3.6746c.1657,0,.3012-.1355.3012-.3012V7.5652c0-.1657-.1355-.3012-.3012-.3012H0"/>
</svg>