<?xml version="1.0" encoding="UTF-8"?>
<svg id="Ebene_1" data-name="Ebene 1" xmlns="http://www.w3.org/2000/svg" xmlns:xlink="http://www.w3.org/1999/xlink" viewBox="0 0 28.501 28.5254">
  <defs>
    <style>
      .cls-1 {
        fill: url(#Unbenannter_Verlauf_38);
      }
    </style>
    <linearGradient id="Unbenannter_Verlauf_38" data-name="Unbenannter Verlauf 38" x1="4.5693" y1="6.1524" x2="23.5844" y2="22.1079" gradientUnits="userSpaceOnUse">
      <stop offset=".1053" stop-color="#d04994"/>
      <stop offset="1" stop-color="#323e8c"/>
    </linearGradient>
  </defs>
  <path class="cls-1" d="M28.4756,12.1582C28.3242,5.7266,23.373.5332,16.959.0791l-1.124-.0791v13.2324h12.666l-.0254-1.0742ZM17.9346,11.1328V2.3145c4.4219.7969,7.7979,4.3535,8.3613,8.8184h-8.3613ZM24.7969,14.7881h-10.5186V4.7832l-.0684-.9814-.9736-.0703c-.2715-.0205-.543-.0391-.8193-.0391C5.5703,3.6924,0,9.2617,0,16.1084s5.5703,12.417,12.417,12.417,12.416-5.5703,12.416-12.417c0-.0742-.0039-.1484-.0137-.293l-.0225-1.0273ZM12.417,26.4258c-5.6885,0-10.3174-4.6289-10.3174-10.3174,0-5.6084,4.5-10.1865,10.0791-10.3135v11.0928h10.5254c-.3994,5.3262-4.8613,9.5381-10.2871,9.5381Z"/>
</svg>