<?xml version="1.0" encoding="UTF-8"?>
<svg id="Ebene_1" data-name="Ebene 1" xmlns="http://www.w3.org/2000/svg" viewBox="0 0 27.5556 28.0019">
  <defs>
    <style>
      .cls-1 {
        fill: #3c3c3b;
      }
    </style>
  </defs>
  <path class="cls-1" d="M19.3487,1.93c1.2283,0,2.2787.1181,3.1214.3507.7809.2159,1.406.53,1.857.9329.4388.3925.7638.8874.9662,1.4719.2205.6359.3323,1.3929.3323,2.2499v10.5579c0,.8567-.1118,1.6138-.3327,2.251-.2016.5824-.5265,1.0771-.9645,1.4691-.4521.404-1.0773.7182-1.8579.9341-.8416.2327-1.8919.3507-3.1218.3507H7.4402l-.3807.1731-3.4232,1.5567,1.013-2.4664.1452-.3535-.0005-.3821c-.0014-1.1723-.0068-7.4808-.0106-14.0902,0-.858.112-1.6149.3342-2.2532.2015-.5825.526-1.0766.9652-1.4691.4512-.4036,1.0719-.7178,1.8444-.9337.8313-.2321,1.8856-.3498,3.1335-.3498h8.288M19.3487,0h-8.288c-1.4232,0-2.6522.1416-3.6525.4209-1.0598.2962-1.9389.752-2.6121,1.3541-.6862.6133-1.1922,1.3797-1.5025,2.2767-.2924.8399-.4403,1.8103-.4403,2.8841.0039,6.6111.0092,12.9202.0106,14.0926l-2.864,6.9734,7.8585-3.5737h11.4902c1.4044,0,2.6275-.1416,3.6361-.4204,1.0695-.2958,1.9538-.7515,2.6295-1.3551.6867-.6147,1.1922-1.3807,1.5025-2.2772.2914-.8409.4388-1.8103.4388-2.8822V6.9354c0-1.0724-.1474-2.0418-.4388-2.8822-.3107-.8974-.8162-1.6639-1.503-2.2781-.6751-.6031-1.5595-1.0588-2.6295-1.3546-1.01-.2788-2.2332-.4204-3.6356-.4204h0Z"/>
  <path class="cls-1" d="M15.2533,20.4839c-2.8827,0-5.1408-1.5421-5.1408-3.5109v-.7505h1.9795v.7505c0,.708,1.3809,1.5315,3.1613,1.5315s3.1613-.8235,3.1613-1.5315v-3.9077c0-.7082-1.3809-1.5315-3.1613-1.5315v-1.9795c2.8827,0,5.1408,1.5421,5.1408,3.5109v3.9077c0,1.9688-2.2581,3.5109-5.1408,3.5109Z"/>
  <path class="cls-1" d="M15.2533,15.2308c-2.8827,0-5.1408-1.5423-5.1408-3.5112v-3.9077c0-1.9688,2.2581-3.5109,5.1408-3.5109s5.1408,1.5421,5.1408,3.5109v.7505h-1.9795v-.7505c0-.7082-1.3809-1.5315-3.1613-1.5315s-3.1613.8232-3.1613,1.5315v3.9077c0,.7082,1.3809,1.5315,3.1613,1.5315v1.9797Z"/>
</svg>