<?xml version="1.0" encoding="UTF-8"?>
<svg id="Ebene_1" data-name="Ebene 1" xmlns="http://www.w3.org/2000/svg" xmlns:xlink="http://www.w3.org/1999/xlink" viewBox="0 0 25.7598 24.3984">
  <defs>
    <style>
      .cls-1 {
        fill: url(#Neues_Verlaufsfeld_4);
      }
    </style>
    <linearGradient id="Neues_Verlaufsfeld_4" data-name="Neues Verlaufsfeld 4" x1="1.2997" y1="4.1908" x2="24.8739" y2="23.9719" gradientUnits="userSpaceOnUse">
      <stop offset=".1053" stop-color="#d04994"/>
      <stop offset="1" stop-color="#323e8c"/>
    </linearGradient>
  </defs>
  <path class="cls-1" d="M23.4316,8.5005h-1.3359V2.9692c0-1.6372-1.332-2.9692-2.9692-2.9692H6.6333c-1.6372,0-2.9692,1.332-2.9692,2.9692v1.2881h-1.3359c-1.2837,0-2.3281,1.0444-2.3281,2.3281v15.4849c0,1.2837,1.0444,2.3281,2.3281,2.3281h21.1035c1.2837,0,2.3281-1.0444,2.3281-2.3281v-11.2417c0-1.2837-1.0444-2.3281-2.3281-2.3281ZM5.7637,2.9692c0-.4795.3901-.8696.8696-.8696h12.4932c.4795,0,.8696.3901.8696.8696v5.5312h-7.3628l-2.395-4.2432h-4.4746v-1.2881ZM23.6602,22.0703c0,.126-.1025.2285-.2285.2285H2.3281c-.126,0-.2285-.1025-.2285-.2285V6.5854c0-.126.1025-.2285.2285-.2285h6.6836l2.395,4.2432h12.0249c.126,0,.2285.1025.2285.2285v11.2417Z"/>
</svg>