<?xml version="1.0" encoding="UTF-8"?>
<svg id="Ebene_1" data-name="Ebene 1" xmlns="http://www.w3.org/2000/svg" xmlns:xlink="http://www.w3.org/1999/xlink" viewBox="0 0 21.1493 23.8311">
  <defs>
    <style>
      .cls-1 {
        fill: url(#Neues_Verlaufsfeld_3);
      }
    </style>
    <linearGradient id="Neues_Verlaufsfeld_3" data-name="Neues Verlaufsfeld 3" x1="1.9855" y1="4.0301" x2="22.6003" y2="21.328" gradientUnits="userSpaceOnUse">
      <stop offset=".1053" stop-color="#d04994"/>
      <stop offset="1" stop-color="#323e8c"/>
    </linearGradient>
  </defs>
  <path class="cls-1" d="M1.9989,11.7334c-.5801,0-1.0498.4697-1.0498,1.0498v9.998c0,.5801.4697,1.0498,1.0498,1.0498s1.0498-.4697,1.0498-1.0498v-9.998c0-.5801-.4697-1.0498-1.0498-1.0498ZM8.0029,8.7319c-.5801,0-1.0498.4697-1.0498,1.0498v12.9995c0,.5801.4697,1.0498,1.0498,1.0498s1.0498-.4697,1.0498-1.0498v-12.9995c0-.5801-.4697-1.0498-1.0498-1.0498ZM14.0068,11.7334c-.5801,0-1.0498.4697-1.0498,1.0498v9.998c0,.5801.4697,1.0498,1.0498,1.0498s1.0498-.4697,1.0498-1.0498v-9.998c0-.5801-.4697-1.0498-1.0498-1.0498ZM20.0102,9.7324c-.5801,0-1.0498.4697-1.0498,1.0498v11.999c0,.5801.4697,1.0498,1.0498,1.0498s1.0498-.4697,1.0498-1.0498v-11.999c0-.5801-.4697-1.0498-1.0498-1.0498ZM16.5458,0c-.5801,0-1.0498.4697-1.0498,1.0498s.4697,1.0498,1.0498,1.0498h.7653l-4.7595,3.313L8.8588.0835.4516,5.916c-.4766.3306-.5947.9849-.2642,1.4614.3315.4771.9858.5947,1.4614.2642l6.6807-4.6353,3.6948,5.332,7.0254-4.8903v.8634c0,.5801.4697,1.0498,1.0498,1.0498s1.0498-.4697,1.0498-1.0498V0h-4.6035Z"/>
</svg>