<?xml version="1.0" encoding="UTF-8"?>
<svg id="Ebene_1" data-name="Ebene 1" xmlns="http://www.w3.org/2000/svg" xmlns:xlink="http://www.w3.org/1999/xlink" viewBox="0 0 21.0039 24.812">
  <defs>
    <style>
      .cls-1 {
        fill: url(#Neues_Verlaufsfeld_2);
      }
    </style>
    <linearGradient id="Neues_Verlaufsfeld_2" data-name="Neues Verlaufsfeld 2" x1="1.1162" y1="7.7313" x2="20.8688" y2="24.3056" gradientUnits="userSpaceOnUse">
      <stop offset=".1053" stop-color="#d04994"/>
      <stop offset="1" stop-color="#323e8c"/>
    </linearGradient>
  </defs>
  <path class="cls-1" d="M10.4707,12.312c3.3945,0,6.1562-2.7612,6.1562-6.1558S13.8652,0,10.4707,0s-6.1562,2.7617-6.1562,6.1562,2.7617,6.1558,6.1562,6.1558ZM10.4707,2.0996c2.2368,0,4.0566,1.8198,4.0566,4.0566s-1.8198,4.0562-4.0566,4.0562-4.0566-1.8198-4.0566-4.0562,1.8198-4.0566,4.0566-4.0566ZM10.502,13.2603C4.7109,13.2603,0,17.9712,0,23.7622c0,.5801.4697,1.0498,1.0498,1.0498s1.0498-.4697,1.0498-1.0498c0-4.6328,3.7695-8.4023,8.4023-8.4023s8.4023,3.7695,8.4023,8.4023c0,.5801.4697,1.0498,1.0498,1.0498s1.0498-.4697,1.0498-1.0498c0-5.791-4.7109-10.502-10.502-10.502Z"/>
</svg>