<?xml version="1.0" encoding="UTF-8"?>
<svg id="Ebene_1" data-name="Ebene 1" xmlns="http://www.w3.org/2000/svg" xmlns:xlink="http://www.w3.org/1999/xlink" viewBox="0 0 140.3856 142.6594">
  <defs>
    <style>
      .cls-1 {
        fill: #3c3c3b;
      }

      .cls-2 {
        fill: url(#Neues_Verlaufsfeld_1);
      }
    </style>
    <linearGradient id="Neues_Verlaufsfeld_1" data-name="Neues Verlaufsfeld 1" x1="11.4209" y1="21.9956" x2="117.6938" y2="128.2684" gradientUnits="userSpaceOnUse">
      <stop offset=".2451" stop-color="#d14894"/>
      <stop offset="1" stop-color="#1f3c8b"/>
    </linearGradient>
  </defs>
  <path class="cls-2" d="M98.5747,9.8325c6.258,0,11.6094.6014,15.9024,1.7866,3.9786,1.0998,7.1632,2.7001,9.4608,4.7528,2.2356,1.9996,3.8911,4.5211,4.9222,7.4987,1.1233,3.2396,1.6929,7.0962,1.6929,11.4626v53.7889c0,4.3645-.5698,8.2215-1.6948,11.4679-1.0268,2.9671-2.6824,5.4874-4.9138,7.4848-2.3034,2.058-5.4883,3.6592-9.4654,4.759-4.2876,1.1854-9.6386,1.7865-15.9044,1.7865h-60.6694l-1.9396.882-17.4402,7.931,5.1607-12.5656.7395-1.8009-.0024-1.9467c-.0074-5.9724-.0345-38.1121-.0542-71.7844,0-4.3713.5707-8.2275,1.7028-11.4794,1.0265-2.9677,2.6799-5.4849,4.9175-7.4845,2.2987-2.0562,5.4611-3.6569,9.3966-4.757,4.2352-1.1826,9.6062-1.7822,15.964-1.7822h42.2245M98.5747,0h-42.2245c-7.2508,0-13.5118.7214-18.6083,2.1445-5.3993,1.5092-9.8778,3.831-13.3075,6.8987-3.4961,3.1244-6.0739,7.0292-7.6546,11.5988-1.4896,4.2791-2.2429,9.2229-2.2429,14.6936.0197,33.6811.0468,65.8236.0542,71.7966L0,142.6594l40.0361-18.2066h58.5386c7.1548,0,13.3863-.7214,18.5246-2.142,5.4486-1.5068,9.9542-3.8285,13.3961-6.9036,3.4986-3.1318,6.0739-7.0341,7.6546-11.6013,1.4846-4.284,2.2356-9.2229,2.2356-14.6838v-53.7889c0-5.4633-.7509-10.4022-2.2356-14.6838-1.5831-4.5721-4.1584-8.4769-7.657-11.6062-3.4395-3.0727-7.9451-5.3944-13.3961-6.9012-5.1457-1.4206-11.3772-2.142-18.5222-2.142h0Z"/>
  <path class="cls-1" d="M77.71,104.358c-14.6863,0-26.1903-7.8565-26.1903-17.8869v-3.8236h10.0846v3.8236c0,3.6069,7.0354,7.8023,16.1056,7.8023s16.1056-4.1954,16.1056-7.8023v-19.9083c0-3.6082-7.0354-7.8023-16.1056-7.8023v-10.0846c14.6863,0,26.1903,7.8565,26.1903,17.8869v19.9083c0,10.0305-11.504,17.8869-26.1903,17.8869Z"/>
  <path class="cls-1" d="M77.71,77.5953c-14.6863,0-26.1903-7.8577-26.1903-17.8882v-19.9083c0-10.0305,11.504-17.8869,26.1903-17.8869s26.1903,7.8565,26.1903,17.8869v3.8236h-10.0846v-3.8236c0-3.6082-7.0354-7.8023-16.1056-7.8023s-16.1056,4.1941-16.1056,7.8023v19.9083c0,3.6082,7.0354,7.8023,16.1056,7.8023v10.0859Z"/>
</svg>