<?xml version="1.0" encoding="UTF-8"?>
<svg id="Ebene_1" data-name="Ebene 1" xmlns="http://www.w3.org/2000/svg" viewBox="0 0 30.3552 15.7713">
  <defs>
    <style>
      .cls-1 {
        fill: none;
        stroke: #3c3c3b;
        stroke-miterlimit: 10;
        stroke-width: 2.1px;
      }

      .cls-2 {
        fill: #3c3c3b;
      }
    </style>
  </defs>
  <line class="cls-1" x1="14.5424" y1="15.2243" x2="20.8942" y2="4.8169"/>
  <path class="cls-2" d="M12.1846.2983l.4717,2.0494c.8163-.1602,1.6582-.2481,2.5208-.2481,1.9122,0,3.7233.423,5.3615,1.1633l1.0892-1.8036c-1.9606-.926-4.1416-1.4593-6.4506-1.4593-1.0244,0-2.0247.104-2.9925.2983ZM3.0474,6.0952l1.7328,1.1844c1.4896-1.9567,3.5118-3.478,5.8547-4.3503l-.474-2.0593c-2.861,1.0065-5.3257,2.8428-7.1135,5.2252ZM0,15.0021h2.0996c.0304-2.1515.5892-4.1749,1.5408-5.9578l-1.7491-1.1956C.7141,9.9747.0315,12.4115,0,15.0021ZM23.4659,2.4769l-1.0837,1.7946c3.4889,2.3134,5.8102,6.2529,5.8734,10.7306h2.0996c-.0637-5.2385-2.7933-9.8422-6.8893-12.5252Z"/>
</svg>